<svg xmlns="http://www.w3.org/2000/svg" version="1.1" xmlns:xlink="http://www.w3.org/1999/xlink" xmlns:svgjs="http://svgjs.dev/svgjs" viewBox="0 0 800 800"><defs><linearGradient x1="50%" y1="0%" x2="50%" y2="100%" id="ccchaos-grad"><stop stop-color="#0097DD" stop-opacity="1" offset="0%"></stop><stop stop-color="#024CE0" stop-opacity="1" offset="100%"></stop></linearGradient></defs><g stroke-width="2" stroke="url(#ccchaos-grad)" fill="none" stroke-linecap="round"><path d="M413.76 109.46C423.96 114.8 434.34 120.47 444.88 125.76 455.43 129.68 466.13 132.31 476.9 133.55 487.63 133.02 498.37 131.58 509 129.69 519.47 127.41 529.66 125.83 539.42 125.45 548.79 126.19 557.48 128.78 565.3 133.27 572.47 139.25 578.54 146.86 583.37 155.73 587.41 165.31 590.17 175.42 591.65 185.66 592.63 195.54 592.68 204.98 592.08 213.8 591.81 221.68 591.64 228.85 592.04 235.37 593.94 240.99 597.23 246.22 602.29 251.23 609.6 255.71 618.91 260.31 630.09 265.17 642.91 269.88 656.71 275.07 670.71 280.79 684.24 286.59 696.26 292.98 705.81 299.96 712.52 307.05 715.53 314.68 714.54 322.79 710.24 330.97 702.57 339.57 692.33 348.51 681.25 357.47 669.95 366.73 659.72 376.25 652.32 385.77 648.07 395.33 647.27 404.95 650.26 414.61 656.04 424.4 663.73 434.36 672.93 444.48 681.93 454.89 689.65 465.67 695.83 476.72 699.12 488.26 699.18 500.29 696.32 512.62 690.19 525.43 681.23 538.59 670.18 551.8 657.41 565.07 643.67 578.08 629.65 590.47 615.86 602 602.79 612.21 590.83 620.94 580.16 627.73 570.83 632.25 559.71 635.02 544.34 628.5 538.64 622.21 533.74 618.2 522.24 624.86 514.91 638.09 509.61 650.73 503.55 665.08 496.74 679.93 489.75 694.05 482.07 705.82 473.77 713.86 465.35 717.65 456.38 716.37 446.94 710.14 437.46 700.43 427.55 688.01 417.27 674.64 406.99 662.9 396.6 654.03 386.14 649.12 375.69 648.99 365.16 652.96 354.58 660.1 344 669.74 333.36 679.75 322.69 688.56 312.04 695.49 301.37 698.88 290.75 698.2 280.21 693.8 269.77 685.51 259.55 674.09 249.53 660.57 239.83 645.76 230.58 630.73 221.71 616.36 213.41 603.3 205.81 592.03 198.7 582.93 192.35 575.87 186.82 570.64 179.57 566.23 168.8 562.43 164.64 560.52 160.3 557.62 150.5 545.6 144.58 536.39 139.92 529.37 135.12 521.46 130.33 512.84 125.3 503.89 120.63 494.44 116.55 484.65 112.83 474.71 110.05 464.59 108.37 454.38 107.42 444.14 107.66 433.89 109.05 423.66 110.97 413.44 113.69 403.48 116.96 393.78 120.1 384.04 123.38 374.49 126.61 365.07 129.21 355.52 131.58 346.01 133.72 336.45 135.21 326.66 136.63 316.72 138.1 306.57 139.34 296.11 140.98 285.39 143.17 274.42 145.66 263.22 148.97 251.86 153.19 240.47 158 229.17 163.77 218.14 170.43 207.61 177.66 197.7 185.63 188.7 194.22 180.88 203.11 174.12 212.38 168.76 221.9 164.9 231.41 162.03 241 160.4 250.57 159.79 259.93 159.32 269.22 159.11 278.41 158.73 287.31 157.3 296.15 154.97 304.96 151.5 313.51 146.43 322.11 140.27 330.81 133.31 339.33 125.66 348.03 118.21 356.95 111.61 365.77 106.09 374.89 102.52 384.35 101.25 393.76 101.9 403.55 104.76 413.75 109.45" stroke-dasharray="2 8" transform="rotate(0, 400, 400)" opacity="0.73"></path><path d="M419.23 120.33C429.15 125.61 439.16 131.23 449.2 136.55 459.24 140.61 469.28 143.49 479.26 145.06 489.18 144.92 498.94 143.8 508.42 142.12 517.71 139.86 526.57 138.06 534.86 137.2 542.75 137.2 549.88 138.85 556.1 142.25 561.75 147.07 566.36 153.56 569.86 161.45 572.8 170.24 574.71 179.83 575.67 189.85 576.46 199.83 576.71 209.65 576.72 219.1 577.36 227.84 578.45 235.97 580.37 243.5 583.86 250.18 588.8 256.36 595.43 262.18 604.02 267.37 614.29 272.46 626.01 277.6 638.89 282.43 652.28 287.53 665.44 293 677.79 298.38 688.42 304.25 696.52 310.62 701.88 317.02 703.78 323.94 702.04 331.36 697.38 338.81 689.75 346.75 679.89 355.13 669.4 363.51 658.77 372.33 649.13 381.56 642.06 390.79 637.83 400.23 636.7 409.89 639.04 419.58 643.98 429.55 650.79 439.81 659.2 450.18 667.66 460.93 675.22 472.05 681.68 483.34 685.73 495.04 686.96 507.1 685.64 519.24 681.28 531.61 674.16 544.02 664.92 556.18 653.75 568.04 641.28 579.25 628.15 589.61 614.79 598.81 601.71 606.47 589.29 612.67 577.78 616.96 567.35 619.18 558.16 619.91 550.09 618.81 543.02 616.18 534.42 611.45 520.74 605.14 514.45 607.73 510.44 613.28 506.03 621.58 501.1 632.45 496.15 645.46 490.58 659.56 484.37 673.59 478.05 686.49 471.08 696.85 463.49 703.53 455.82 706.21 447.58 704.24 438.8 697.82 429.99 688.34 420.7 676.47 410.96 663.77 401.22 652.56 391.29 643.91 381.22 638.8 371.18 638.04 361.01 641.07 350.76 647.16 340.54 655.82 330.26 665.16 319.97 673.83 309.74 681.21 299.54 685.67 289.44 686.62 279.48 684.24 269.71 678.15 260.22 668.87 251 657.23 242.17 643.82 233.84 629.57 225.92 615.31 218.6 601.7 211.97 589.3 205.8 578.53 200.35 569.51 195.63 562.2 189.4 554.67 179.84 546.5 175.87 543.75 171.45 541.05 161.1 531.68 154.86 524.46 150.04 518.96 145.12 512.56 140.24 505.39 135.21 497.92 130.57 489.82 126.55 481.2 122.93 472.44 120.26 463.3 118.69 453.87 117.85 444.41 118.18 434.73 119.64 424.88 121.63 415.03 124.41 405.26 127.73 395.55 130.96 385.82 134.33 376.12 137.65 366.4 140.38 356.59 142.87 346.7 145.11 336.68 146.69 326.5 148.14 316.13 149.57 305.56 150.68 294.83 152.1 283.92 153.96 272.89 155.99 261.84 158.77 250.82 162.35 239.99 166.45 229.49 171.47 219.48 177.37 210.18 183.85 201.64 191.11 194.14 199.05 187.86 207.38 182.58 216.2 178.61 225.37 175.95 234.66 174.01 244.13 173.02 253.69 172.72 263.15 172.25 272.6 171.75 282 170.84 291.2 168.75 300.34 165.7 309.44 161.53 318.33 155.91 327.22 149.37 336.15 142.23 344.93 134.62 353.81 127.39 362.84 121.14 371.77 116.03 380.92 112.84 390.3 111.88 399.65 112.72 409.29 115.66 419.22 120.32" stroke-dasharray="3 4" transform="rotate(4.04, 400, 400)" opacity="0.91"></path><path d="M422.14 131.2C431.73 136.4 441.27 141.97 450.72 147.29 460.16 151.47 469.46 154.59 478.56 156.48 487.57 156.72 496.28 155.97 504.6 154.56 512.7 152.42 520.27 150.52 527.18 149.3 536.63 149.1 550.65 158.19 555.04 167.62 557.36 175.42 558.91 184.23 559.84 193.72 560.9 203.46 561.76 213.33 562.72 223.07 564.54 232.39 567.02 241.28 570.49 249.68 575.52 257.35 581.93 264.53 589.85 271.28 599.43 277.38 610.32 283.23 622.25 288.97 634.9 294.29 647.62 299.7 659.77 305.31 670.86 310.71 680.08 316.46 686.78 322.6 690.89 328.67 691.79 335.21 689.4 342.22 684.47 349.22 676.94 356.71 667.49 364.69 657.59 372.67 647.61 381.14 638.54 390.12 631.8 399.1 627.6 408.39 626.18 417.98 627.93 427.6 632.08 437.56 638.04 447.84 645.63 458.2 653.48 468.9 660.77 479.91 667.32 490.97 671.92 502.3 674.12 513.78 674.14 525.15 671.39 536.48 666.03 547.55 658.6 558.16 649.13 568.15 638.15 577.24 626.21 585.36 613.66 592.17 600.99 597.4 588.57 601.34 576.68 603.56 565.56 604.03 555.36 603.5 546.11 601.66 537.77 598.9 530.44 596.34 523.85 593.93 517.83 592.3 512.53 592.54 507.5 594.66 502.55 599.07 497.96 606.22 493.19 615.73 488.12 627.27 483.15 640.33 477.73 653.93 471.8 666.97 465.85 678.59 459.34 687.55 452.27 692.93 445.15 694.6 437.49 692.04 429.3 685.47 421.08 676.26 412.37 664.94 403.18 652.91 394 642.22 384.6 633.81 375.03 628.54 365.5 627.22 355.82 629.37 346.07 634.43 336.37 642.08 326.63 650.68 316.9 659.01 307.29 666.6 297.75 671.87 288.37 674.17 279.18 673.61 270.23 669.6 261.63 662.47 253.33 652.87 245.47 641.18 238.14 628.17 231.2 614.58 224.85 601.02 219.18 588.09 213.88 576.22 209.23 565.69 205.23 556.62 199.81 546.1 191.07 532.76 187.11 528.36 182.49 524.85 171.48 516.09 164.92 510.02 159.95 505.53 154.93 500.24 150.01 494.18 145 487.93 140.43 480.97 136.5 473.41 133 465.73 130.47 457.52 129.01 448.88 128.29 440.19 128.7 431.12 130.23 421.71 132.28 412.3 135.1 402.79 138.47 393.19 141.76 383.58 145.21 373.85 148.62 364.01 151.47 354.12 154.1 344.08 156.46 333.87 158.15 323.59 159.67 313.14 161.11 302.56 162.17 291.96 163.43 281.29 165.02 270.67 166.69 260.21 168.98 249.97 171.98 240.13 175.41 230.76 179.69 222.06 184.8 214.22 190.47 207.17 196.95 201.2 204.13 196.41 211.77 192.48 219.96 189.69 228.6 187.97 237.47 186.68 246.62 186.03 255.94 185.76 265.29 185.05 274.71 184.08 284.14 182.52 293.46 179.72 302.76 175.94 312.02 171.13 321.14 165.03 330.24 158.2 339.33 150.98 348.31 143.5 357.33 136.56 366.42 130.69 375.44 126.01 384.58 123.21 393.85 122.54 403.11 123.57 412.53 126.57 422.12 131.19" stroke-dasharray="7 1" transform="rotate(8.08, 400, 400)" opacity="0.95"></path><path d="M422.1 142.07C431.29 147.19 440.31 152.68 449.12 157.98 457.9 162.27 466.42 165.6 474.61 167.8 482.72 168.44 490.42 168.08 497.62 166.99 507.85 164.11 524.65 160.68 530.94 162.17 534.61 164.74 537.53 168.87 539.73 174.45 541.87 181.11 543.52 188.92 544.84 197.6 546.55 206.78 548.33 216.34 550.46 226.04 553.57 235.59 557.49 244.93 562.44 253.94 568.83 262.42 576.47 270.47 585.4 278.11 595.62 285.17 606.8 291.9 618.62 298.42 630.76 304.48 642.63 310.48 653.63 316.53 663.4 322.3 671.23 328.26 676.59 334.5 679.55 340.59 679.57 347.06 676.63 353.93 671.51 360.74 664.14 368 655.13 375.74 645.81 383.46 636.47 391.68 627.95 400.42 621.54 409.16 617.39 418.23 615.72 427.61 616.92 437 620.33 446.72 625.46 456.72 632.23 466.73 639.43 477 646.32 487.44 652.83 497.83 657.77 508.29 660.72 518.69 661.87 528.83 660.55 538.67 656.82 548.01 651.14 556.77 643.42 564.7 634.04 571.57 623.53 577.51 612.1 582.13 600.22 585.27 588.22 587.4 576.4 588.1 565.01 587.47 554.23 586.33 544.16 584.42 534.86 582.13 526.39 580.51 518.63 579.48 511.48 579.57 505.02 581.64 498.97 585.61 493.15 591.72 487.77 600.17 482.4 610.55 476.92 622.41 471.63 635.24 466.07 648.11 460.16 660.04 454.29 670.32 448 677.91 441.25 682.07 434.48 682.83 427.25 679.75 419.53 673.12 411.8 664.19 403.61 653.43 394.99 642.04 386.36 631.87 377.52 623.71 368.54 618.34 359.58 616.51 350.51 617.85 341.39 621.93 332.33 628.56 323.28 636.32 314.28 644.19 305.42 651.76 296.69 657.56 288.17 660.93 279.87 661.93 271.86 659.83 264.24 654.77 256.9 647.29 250.04 637.52 243.71 626.09 237.71 613.66 232.29 600.71 227.47 587.86 222.94 575.51 218.97 564.03 215.53 553.65 212.19 544.54 209.23 536.66 206.58 529.9 202.37 521.98 193.35 510.33 188.04 505.28 183.83 502.15 179.38 498.63 174.74 494.6 169.65 490.56 164.56 485.87 159.63 480.53 154.68 475.09 150.21 468.98 146.4 462.24 143.06 455.42 140.67 448.01 139.35 440.07 138.74 432.1 139.24 423.64 140.82 414.71 142.92 405.78 145.77 396.63 149.15 387.28 152.5 377.93 156.01 368.39 159.5 358.67 162.48 348.94 165.24 339.04 167.74 328.99 169.58 318.96 171.21 308.82 172.71 298.64 173.77 288.58 174.95 278.58 176.35 268.78 177.73 259.29 179.61 250.19 182.1 241.63 184.91 233.64 188.48 226.41 192.84 220.1 197.69 214.54 203.33 209.99 209.69 206.53 216.51 203.71 223.96 201.82 231.91 200.74 240.17 199.79 248.79 199.2 257.68 198.7 266.7 197.56 275.87 195.96 285.12 193.67 294.36 190.14 303.62 185.67 312.86 180.28 322.04 173.81 331.2 166.78 340.32 159.57 349.38 152.31 358.44 145.71 367.5 140.27 376.52 136.03 385.57 133.61 394.67 133.23 403.75 134.44 412.9 137.49 422.09 142.06" stroke-dasharray="10 1" transform="rotate(12.12, 400, 400)" opacity="0.15"></path><path d="M419.13 152.93C427.86 157.96 436.32 163.36 444.46 168.63 452.58 173 460.33 176.52 467.68 179.01 474.95 180.04 481.74 180.08 488 179.36 496.86 176.82 511.19 172.74 516.58 173.14 521.2 176.22 528.2 190.86 531.32 201.85 533.91 210.17 536.81 219.1 540.21 228.4 544.62 237.81 549.89 247.23 556.15 256.52 563.65 265.5 572.23 274.19 581.82 282.54 592.35 290.43 603.51 298 614.93 305.31 626.33 312.19 637.18 318.91 646.94 325.57 655.37 331.93 661.85 338.35 665.97 344.91 667.88 351.29 667.14 357.93 663.77 364.86 658.54 371.71 651.37 378.92 642.8 386.54 634.07 394.13 625.34 402.16 617.36 410.64 611.28 419.13 607.19 427.89 605.31 436.9 606.02 445.91 608.74 455.14 613.08 464.55 619.03 473.93 625.53 483.42 631.95 492.92 638.26 502.28 643.37 511.52 646.86 520.48 648.91 529.1 648.82 537.22 646.55 544.67 642.52 551.51 636.5 557.43 628.78 562.25 619.83 566.29 609.76 569.11 598.96 570.68 587.77 571.57 576.42 571.39 565.2 570.33 554.28 569.21 543.81 567.78 533.91 566.46 524.62 566.14 515.95 566.71 507.85 568.6 500.37 572.43 493.34 578.05 486.65 585.55 480.4 594.98 474.3 605.86 468.26 617.73 462.46 630.06 456.55 642.01 450.45 652.73 444.45 661.67 438.16 667.94 431.55 670.96 424.95 670.9 417.99 667.4 410.64 660.75 403.29 652.14 395.56 641.92 387.46 631.17 379.35 621.52 371.09 613.63 362.73 608.19 354.4 605.93 346 606.52 337.6 609.66 329.27 615.28 320.99 622.16 312.83 629.42 304.8 636.78 296.96 642.86 289.39 647.02 282.01 649.29 274.97 648.86 268.34 645.73 261.96 640.32 256.05 632.58 250.65 622.97 245.51 612.06 240.89 600.22 236.8 587.99 232.89 575.77 229.43 563.95 226.39 552.81 223.33 542.56 220.54 533.29 217.94 525 215.05 517.79 212.17 511.43 209.22 505.75 205.76 500.89 202.1 496.39 198.21 492.07 193.76 488.17 189.1 484.16 184.3 479.89 179.13 475.76 174.02 471.19 169.12 466.12 164.26 461.06 159.92 455.43 156.27 449.23 153.1 442.99 150.87 436.18 149.69 428.82 149.2 421.44 149.78 413.53 151.41 405.12 153.54 396.7 156.4 387.99 159.8 379.04 163.17 370.11 166.73 360.96 170.29 351.62 173.39 342.32 176.28 332.87 178.93 323.34 180.93 313.89 182.71 304.42 184.32 295.04 185.44 285.85 186.6 276.87 187.9 268.23 189.07 259.97 190.64 252.21 192.69 245.11 194.96 238.57 197.9 232.83 201.53 227.98 205.59 223.76 210.4 220.45 215.9 218.05 221.86 216.05 228.45 214.74 235.6 213.96 243.1 213.05 251.03 212.25 259.3 211.3 267.78 209.57 276.48 207.26 285.34 204.2 294.27 199.97 303.27 194.88 312.3 189.01 321.33 182.26 330.36 175.16 339.36 168.06 348.33 161.08 357.28 154.88 366.18 149.88 375.07 146.09 383.94 144.07 392.76 143.96 401.59 145.34 410.38 148.42 419.12 152.93" stroke-dasharray="10 6" transform="rotate(16.16, 400, 400)" opacity="0.77"></path><path d="M413.61 163.8C421.84 168.72 429.73 174.02 437.23 179.23 444.71 183.66 451.78 187.35 458.39 190.11 467.97 191.74 484.38 189.56 491.13 187.26 502.07 185.84 515.29 197.58 519.73 206.79 523.35 214.03 527.41 222.06 532.07 230.63 537.68 239.53 544.11 248.66 551.43 257.86 559.77 266.97 568.96 275.96 578.87 284.73 589.39 293.2 600.22 301.42 610.99 309.38 621.48 316.99 631.18 324.42 639.66 331.7 646.77 338.71 651.96 345.67 654.93 352.67 655.91 359.48 654.51 366.42 650.81 373.53 645.54 380.56 638.61 387.84 630.52 395.4 622.36 402.93 614.23 410.79 606.77 418.99 601.02 427.19 597.01 435.55 594.96 444.03 595.22 452.5 597.3 461.07 600.88 469.66 606.03 478.19 611.81 486.65 617.69 494.96 623.68 503.08 628.79 510.9 632.63 518.27 635.81 528.49 630.52 544.48 622.24 549.72 614.91 552.29 606.34 553.86 596.84 554.45 586.75 554.72 576.24 554.3 565.57 553.42 554.93 552.85 544.49 552.39 534.39 552.37 524.68 553.56 515.43 555.81 506.67 559.43 498.39 564.84 490.56 571.85 483.09 580.41 476.04 590.45 469.22 601.5 462.58 613.06 456.19 624.67 449.82 635.56 443.42 645.01 437.14 652.61 430.72 657.62 424.11 659.61 417.53 658.83 410.72 654.98 403.64 648.37 396.57 640.09 389.21 630.43 381.59 620.3 373.97 611.16 366.27 603.56 358.54 598.1 350.83 595.45 343.13 595.37 335.49 597.63 327.91 602.26 320.45 608.22 313.16 614.78 305.99 621.74 299.05 627.86 292.41 632.54 285.94 635.79 279.83 636.76 274.13 635.34 268.62 631.89 263.55 626.16 258.96 618.49 254.54 609.36 250.56 599 247.03 587.86 243.56 576.33 240.44 564.76 237.63 553.47 234.7 542.65 231.92 532.49 229.23 523.11 226.2 514.55 223.1 506.77 219.87 499.7 216.13 493.39 212.19 487.58 208.02 482.12 203.35 477.16 198.52 472.31 193.6 467.42 188.39 462.78 183.3 457.92 178.48 452.75 173.76 447.65 169.58 442.15 166.11 436.2 163.14 430.25 161.08 423.82 160.04 416.89 159.67 409.95 160.34 402.53 162 394.62 164.15 386.71 167.01 378.52 170.39 370.12 173.78 361.73 177.37 353.15 180.99 344.44 184.18 335.8 187.21 327.07 190.01 318.34 192.19 309.75 194.13 301.25 195.88 292.94 197.13 284.88 198.34 277.14 199.6 269.84 201.33 259.76 206.76 243.6 210.94 237.84 216.27 233.53 230.86 228.62 239.98 227.3 246.62 226.17 253.73 224.92 261.23 223.36 268.99 220.93 277.04 217.86 285.31 214.05 293.71 209.17 302.25 203.55 310.86 197.32 319.54 190.41 328.24 183.35 336.92 176.45 345.63 169.83 354.3 164.07 362.9 159.55 371.52 156.22 380.07 154.58 388.53 154.74 397 156.26 405.37 159.36 413.6 163.8" stroke-dasharray="10 5" transform="rotate(20.200000000000003, 400, 400)" opacity="0.60"></path><path d="M406.28 174.67C413.99 179.47 421.32 184.65 428.25 189.79 435.15 194.25 441.63 198.07 447.66 201.08 456.41 203.27 471.47 202.25 477.8 200.25 488.91 197.79 504.49 205.36 510.4 212.7 515.07 218.73 520.24 225.64 526.02 233.24 532.63 241.3 539.98 249.78 548.05 258.52 556.9 267.38 566.36 276.27 576.26 285.11 586.48 293.81 596.71 302.36 606.64 310.72 616.06 318.85 624.56 326.8 631.74 334.58 637.56 342.15 641.55 349.61 643.48 357.01 643.66 364.26 641.72 371.52 637.78 378.84 632.54 386.08 625.9 393.44 618.28 400.95 610.68 408.44 603.13 416.11 596.18 423.98 590.75 431.85 586.85 439.73 584.65 447.58 584.51 455.41 586.01 463.18 588.89 470.82 593.26 478.38 598.3 485.71 603.58 492.74 609.16 499.57 614.12 505.97 618.12 511.81 622.16 519.77 620.34 531.38 614.34 534.8 608.62 536.45 601.6 537.36 593.55 537.6 584.78 537.84 575.37 537.75 565.58 537.56 555.6 537.96 545.58 538.77 535.67 540.25 525.95 543 516.51 546.88 507.42 552.05 498.67 558.77 490.29 566.83 482.27 576.08 474.58 586.38 467.17 597.27 459.99 608.27 453.05 618.96 446.23 628.68 439.49 636.82 432.88 643.13 426.25 646.96 419.57 648.02 412.93 646.62 406.18 642.51 399.29 635.98 392.41 628.07 385.37 618.96 378.17 609.43 370.98 600.8 363.8 593.49 356.67 588.05 349.56 585.09 342.53 584.4 335.63 585.85 328.79 589.52 322.11 594.55 315.65 600.33 309.29 606.75 303.2 612.7 297.43 617.63 289.13 622.6 274.63 620.06 268.49 612.42 264.6 605.2 261.09 596.56 257.92 586.88 254.72 576.51 251.77 565.72 249.02 554.83 246.06 544.05 243.17 533.59 240.29 523.62 237.02 514.2 233.64 505.4 230.11 497.21 226.08 489.66 221.86 482.63 217.44 476.04 212.59 469.95 207.63 464.11 202.64 458.41 197.45 453.01 192.43 447.57 187.73 442.02 183.18 436.6 179.21 430.94 175.94 424.99 173.17 419.08 171.3 412.81 170.41 406.17 170.16 399.53 170.9 392.49 172.59 385.07 174.75 377.64 177.59 370.02 180.95 362.24 184.33 354.5 187.93 346.63 191.58 338.73 194.87 330.89 198.01 323.07 200.95 315.36 203.32 307.79 205.45 300.42 207.37 293.34 209.43 283.29 213.04 266.06 215.14 259.23 217.62 253.64 225.38 246.16 230.89 243.98 237.52 242.05 254.14 237.89 263.88 234.67 270.8 231.5 278.05 227.69 285.57 223.18 293.28 217.75 301.17 211.72 309.18 205.25 317.3 198.32 325.49 191.4 333.68 184.8 341.94 178.6 350.17 173.32 358.34 169.29 366.54 166.42 374.66 165.14 382.66 165.55 390.68 167.2 398.56 170.32 406.27 174.67" stroke-dasharray="6 9" transform="rotate(24.24, 400, 400)" opacity="0.30"></path><path d="M398.12 185.54C405.3 190.21 412.12 195.25 418.55 200.3 424.96 204.76 430.98 208.7 436.59 211.91 444.78 214.64 459.17 214.86 465.49 213.28 471.65 211.14 483.34 209.39 489.33 210.83 493.76 212.79 498.43 215.8 503.45 219.82 509.07 224.58 515.19 230.25 521.87 236.69 529.24 243.68 537.19 251.23 545.7 259.18 554.73 267.4 564.13 275.83 573.72 284.35 583.37 292.9 592.8 301.42 601.72 309.84 609.99 318.16 617.24 326.35 623.15 334.38 627.75 342.29 630.64 350.07 631.66 357.73 631.14 365.29 628.78 372.78 624.69 380.23 619.54 387.62 613.22 395.01 606.09 402.42 599.04 409.82 592.05 417.26 585.59 424.74 580.48 432.23 576.69 439.57 574.38 446.74 573.91 453.88 574.87 460.82 577.09 467.48 580.71 474.06 585.03 480.3 589.68 486.12 597.09 494.34 608.01 507.61 610.03 512.41 609.02 516.16 598.13 520.28 588.83 521.15 581.49 521.87 573.38 522.56 564.72 523.43 555.71 525.07 546.44 527.29 537.09 530.31 527.73 534.55 518.48 539.85 509.43 546.31 500.57 554.02 491.97 562.76 483.67 572.34 475.6 582.56 467.8 592.99 460.25 603.2 452.89 612.83 445.72 621.32 438.69 628.17 431.8 633.23 424.97 635.98 418.19 636.21 411.48 634.28 404.75 629.98 398 623.6 391.27 616.06 384.49 607.49 377.66 598.56 370.83 590.43 364.11 583.44 357.53 578.04 350.96 574.83 344.55 573.61 338.33 574.31 332.14 577.08 326.17 581.17 320.46 586.12 314.81 591.88 309.45 597.48 304.41 602.42 297.13 608.19 284.42 609.56 278.96 604.62 275.43 599.32 272.19 592.52 269.2 584.52 266.09 575.65 263.14 566.08 260.31 556.09 257.21 545.9 254.1 535.71 250.95 525.72 247.4 515.98 243.71 506.65 239.86 497.79 235.56 489.36 231.08 481.41 226.46 473.89 221.47 466.8 216.44 460.03 211.44 453.51 206.32 447.28 201.42 441.17 196.88 435.1 192.55 429.19 188.8 423.21 185.76 417.1 183.22 411.04 181.54 404.79 180.8 398.32 180.67 391.85 181.47 385.13 183.18 378.15 185.33 371.17 188.15 364.11 191.46 357.01 194.82 349.93 198.4 342.85 202.08 335.83 205.43 328.88 208.68 322.05 211.75 315.42 214.29 308.93 216.62 302.71 218.73 296.86 221.07 288.63 224.9 274.98 226.86 269.77 232.14 262.51 245.27 255.26 251.78 252.91 256.59 250.71 261.89 248.14 267.63 245.09 273.63 241.18 280.01 236.69 286.68 231.59 293.56 225.73 300.67 219.43 307.94 212.86 315.35 206.02 322.87 199.35 330.44 193.13 338.08 187.4 345.74 182.64 353.35 179.11 361.01 176.69 368.6 175.76 376.07 176.4 383.57 178.17 390.93 181.29 398.11 185.54" stroke-dasharray="3 5" transform="rotate(28.28, 400, 400)" opacity="0.55"></path><path d="M390.21 196.41C396.88 200.93 403.24 205.82 409.26 210.76 415.27 215.21 420.96 219.21 426.31 222.61 434.18 225.82 448.5 227.32 455.11 226.27 461.75 224.37 475.12 221.93 482.25 222.38 487.45 223.44 492.96 225.41 498.83 228.28 505.21 231.81 512.05 236.23 519.35 241.42 527.16 247.19 535.4 253.6 544 260.52 552.9 267.8 561.95 275.43 570.96 283.29 579.83 291.3 588.29 299.41 596.1 307.53 603.18 315.67 609.19 323.75 613.88 331.74 617.36 339.68 619.27 347.5 619.49 355.2 618.4 362.84 615.72 370.38 611.56 377.8 606.56 385.2 600.58 392.51 593.94 399.73 587.43 406.95 580.99 414.09 575 421.14 570.21 428.19 566.55 434.98 564.16 441.47 563.39 447.94 563.88 454.09 565.5 459.87 568.41 465.58 572.01 470.87 576.01 475.69 592.38 493.94 589.64 504.37 582.52 506.11 576.64 507.68 569.93 509.44 562.55 511.57 554.71 514.54 546.46 518.17 537.97 522.61 529.31 528.13 520.6 534.59 511.93 541.98 503.32 550.32 494.84 559.37 486.56 568.92 478.42 578.75 470.5 588.49 462.8 597.72 455.24 606.2 447.88 613.43 440.7 619.01 433.62 622.91 426.68 624.68 419.86 624.18 413.09 621.84 406.4 617.42 399.78 611.21 393.18 604.06 386.62 596.03 380.11 587.69 373.6 580.06 367.29 573.38 361.18 568.08 352.13 563.83 335.21 566.53 327.42 572.22 322.34 577.24 317.56 582.34 313.09 587.07 300.82 595.42 285.07 589.08 280.51 580.38 277.34 573.21 274.27 565.15 271.23 556.45 267.89 547.31 264.51 537.9 261.04 528.41 257.19 518.93 253.19 509.61 249.04 500.56 244.5 491.76 239.83 483.3 235.05 475.2 230 467.41 224.96 459.94 220.01 452.77 215.01 445.85 210.29 439.13 205.96 432.56 201.87 426.15 198.38 419.8 195.58 413.47 193.27 407.2 191.8 400.89 191.2 394.51 191.19 388.14 192.05 381.66 193.77 375.08 195.91 368.51 198.67 361.98 201.92 355.53 205.24 349.11 208.8 342.79 212.46 336.64 215.86 330.55 219.19 324.67 222.37 319.07 226.34 311.01 232.56 296.97 234.97 291.2 238.74 282.32 245.99 273.08 249.68 270.72 254.1 267.8 265.66 259.95 272.74 254.49 277.83 249.93 283.3 244.85 289.09 239.29 295.07 233.15 301.33 226.73 307.79 220.2 314.38 213.58 321.13 207.26 327.97 201.48 334.9 196.28 341.88 192.05 348.86 189.02 355.88 187.04 362.87 186.45 369.77 187.3 376.7 189.17 383.52 192.27 390.2 196.4" stroke-dasharray="10 4" transform="rotate(32.32, 400, 400)" opacity="0.66"></path><path d="M383.59 207.28C389.8 211.64 395.75 216.37 401.45 221.18 407.16 225.57 412.61 229.62 417.83 233.16 425.57 236.81 440.21 239.57 447.29 239.13 454.53 237.65 469.62 235.03 477.77 234.8 483.63 235.16 489.79 236.27 496.28 238.15 503.18 240.56 510.44 243.77 518.05 247.74 525.99 252.24 534.2 257.42 542.58 263.16 551.06 269.3 559.5 275.89 567.72 282.8 575.65 289.97 583.04 297.33 589.68 304.82 595.56 312.42 600.38 320.05 603.93 327.66 606.4 335.29 607.44 342.86 607 350.32 605.46 357.79 602.56 365.13 598.41 372.34 593.61 379.54 587.99 386.61 581.84 393.53 575.85 400.45 569.94 407.22 564.41 413.81 559.93 420.39 556.41 426.64 553.98 432.52 552.99 441.12 557.81 456.22 562.6 462.62 578.52 478.78 579.66 490.21 574.54 493.29 570.08 495.9 564.76 498.86 558.72 502.3 552.19 506.52 545.13 511.42 537.7 517.05 530.01 523.57 522.11 530.83 514.12 538.79 506.07 547.38 498.04 556.38 490.09 565.57 482.19 574.75 474.43 583.59 466.83 591.72 459.32 598.99 451.98 604.97 444.82 609.34 437.73 612.17 430.8 613.07 424.03 611.97 417.3 609.28 410.7 604.82 404.23 598.83 397.78 592.09 391.43 584.59 385.21 576.82 378.98 569.68 373.01 563.34 367.29 558.15 358.84 553.57 343.24 554.27 336.13 558.67 329.29 565.12 316.99 577.86 311.48 582.28 306.13 584.39 296.23 580.28 291.5 574.18 288.17 568.77 284.86 562.38 281.54 555.2 277.93 547.45 274.23 539.21 270.44 530.68 266.29 521.95 262.02 513.15 257.62 504.42 252.9 495.75 248.09 487.26 243.24 479.03 238.19 470.95 233.21 463.15 228.37 455.62 223.56 448.26 219.06 441.14 214.98 434.23 211.17 427.45 207.95 420.81 205.41 414.31 203.35 407.86 202.08 401.5 201.63 395.19 201.73 388.9 202.64 382.64 204.36 376.41 206.47 370.19 209.17 364.14 212.34 358.28 215.6 352.44 219.1 346.81 222.74 341.43 227.85 333.57 237.03 319.49 240.88 313.42 246.26 303.38 252.62 292.06 254.86 289.23 257.3 286.18 264 279.3 268.41 274.95 271.65 271.33 275.31 267.3 279.37 262.83 283.6 257.73 288.21 252.21 293.15 246.36 298.25 240.09 303.63 233.69 309.26 227.35 315.01 221.05 320.94 215.17 327.02 209.9 333.18 205.25 339.43 201.57 345.73 199.03 352.07 197.47 358.42 197.2 364.75 198.25 371.09 200.19 377.38 203.26 383.58 207.27" stroke-dasharray="1 7" transform="rotate(36.36, 400, 400)" opacity="0.09"></path><path d="M379.16 218.15C384.93 222.35 390.55 226.89 396 231.55 401.46 235.87 406.77 239.92 411.93 243.56 422.35 248.46 432.43 251.07 442.39 251.78 452.94 250.14 463.94 248.5 475.69 247.91 488.57 247.95 502.56 250.55 517.5 255.83 533.16 262.9 548.94 272.42 563.77 283.73 577.05 296.18 587.33 309.61 593.34 323.38 595.53 337.52 592.72 351.55 585.25 365.11 580.68 371.92 575.45 378.59 569.79 385.09 564.31 391.6 558.91 397.92 553.82 404.03 547.97 413.02 542.46 429.08 542.9 436.12 547.14 445.18 553.16 452.62 559.32 458.55 565.67 464.64 569.42 469.71 569.81 474.36 567.76 480.32 561.97 487.16 553.04 495.69 542.15 506.95 529.25 520.6 515.25 536.36 500.67 553.5 485.88 570.46 471.39 585.1 457 596.12 443.11 601.33 429.87 599.57 423.3 596.64 416.87 592.2 410.6 586.46 404.35 580.13 398.23 573.16 392.27 565.95 386.31 559.29 380.62 553.29 375.22 548.26 369.81 544.62 364.67 542.25 359.8 541.17 350.02 543.45 341.28 549.28 333.56 556.5 325.63 564.51 318.51 569.77 312.02 571.01 304.91 568.95 297.99 562.25 291.03 551.8 282.93 538.87 274.45 523.92 265.58 508.14 255.73 491.96 245.88 476.06 236.57 460.95 227.58 446.18 220.24 432.22 215.27 419.08 213.46 412.58 212.38 406.23 212.09 400.03 212.28 393.86 213.24 387.81 214.95 381.9 217.02 375.99 219.65 370.35 222.73 364.99 225.9 359.63 229.33 354.56 232.91 349.79 239.47 340.3 245.82 332.11 251.59 325.34 255.69 318.62 259.29 313.19 262.66 308.83 265.04 303.88 267.97 299.23 271.78 294.29 275.64 287.53 280.89 279.56 287.52 270.12 294.66 258.72 303.15 246.48 312.71 234.38 322.68 222.97 333.44 214.12 344.66 209.16 350.32 208.01 356.05 208.03 361.82 209.24 367.59 211.25 373.38 214.26 379.15 218.14" stroke-dasharray="9 10" transform="rotate(40.400000000000006, 400, 400)" opacity="0.84"></path><path d="M377.5 229.02C388.28 237.15 398.8 245.88 409.06 253.81 419.46 259.17 429.86 262.56 440.43 264.14 451.52 263.36 463.19 262.18 475.58 261.52 488.76 260.89 502.74 262.2 517.22 265.72 531.86 270.59 546.08 277.75 558.91 286.75 569.98 296.87 578.03 308.22 582.11 320.21 582.93 332.7 579.45 345.34 572.09 357.72 563.33 370.23 553.16 382.27 543.23 393.55 536.41 404.83 532.58 414.74 531.89 423.28 534.94 431.82 539.71 439.11 544.92 445.35 550.74 451.99 554.71 458.19 556.05 464.51 555.62 472.23 551.95 481.09 545.39 491.6 537.05 504.24 526.55 518.67 514.67 534.31 502.02 550.39 488.77 565.48 475.47 577.78 462.09 586.47 448.96 589.79 436.35 587.01 423.8 579.92 411.76 568.57 400.36 555.09 388.96 543.48 378.65 534.94 369.38 530.6 360.02 531.48 351.6 535.68 344.03 541.56 336.16 548.82 328.9 554.35 322.07 556.91 314.57 557.08 307.11 553.26 299.52 545.9 290.95 536.16 282.06 524.02 272.94 510.52 263.12 496.19 253.52 481.58 244.64 467.29 236.26 453.05 229.56 439.4 225.17 426.56 222.48 413.84 222.57 401.8 225.54 390.58 229.85 379.35 235.92 369.38 242.97 360.69 249.51 351.98 255.98 344.53 262.01 338.3 266.56 331.89 270.63 326.41 274.38 321.58 277.06 315.91 280.05 310.16 283.64 303.85 287 295.84 291.47 286.71 297.09 276.43 302.98 264.76 310.12 252.75 318.31 241.38 326.78 231.06 336.13 223.38 346.11 219.42 356.19 218.65 366.71 222.01 377.49 229.01" stroke-dasharray="6 8" transform="rotate(44.44, 400, 400)" opacity="0.58"></path><path d="M378.83 239.89C388.92 247.64 399.08 256.05 409.27 263.91 419.6 269.64 430.19 273.7 441.1 276.13 452.43 276.28 464.35 275.79 476.84 275.38 489.79 274.53 503.21 275.04 516.68 277.25 529.9 280.34 542.29 285.44 552.99 292.28 561.9 300.08 567.9 309.25 570.3 319.29 570.01 329.83 566.09 340.8 558.97 351.79 550.88 362.92 541.66 373.82 532.64 384.2 526.28 394.58 522.36 403.9 521.07 412.19 523.05 420.55 526.63 428.1 530.81 435.07 535.92 442.57 539.77 450.09 541.65 458.08 542.36 467.36 540.38 477.8 535.84 489.64 529.8 502.95 521.64 517.39 511.92 532.24 501.38 546.77 489.95 559.75 478.14 569.68 466.12 576.21 454.09 577.89 442.34 574.31 430.62 567.24 419.25 556.62 408.4 544.22 397.56 533.42 387.67 525.1 378.71 520.25 369.63 519.9 361.33 522.56 353.69 527.02 345.74 533.24 338.19 538.55 330.9 541.81 322.99 543.56 315.03 542.04 306.92 537.39 298.02 530.68 288.9 521.47 279.73 510.56 270.14 498.61 260.95 485.89 252.63 473.05 244.94 460.01 238.93 447.26 235.11 435.12 232.87 423.02 233.19 411.56 236.13 400.91 240.29 390.27 246.12 380.87 252.93 372.69 259.38 364.42 265.9 357.23 272.12 351 277.07 344.43 281.58 338.45 285.77 332.75 288.87 326.14 292.09 319.19 295.68 311.59 298.85 302.56 302.86 292.6 307.79 281.87 312.78 270.31 318.86 258.87 325.93 248.44 333.16 239.31 341.31 232.82 350.2 229.81 359.15 229.64 368.73 233.14 378.83 239.89" stroke-dasharray="6 8" transform="rotate(48.48, 400, 400)" opacity="0.12"></path><path d="M382.97 250.76C392.44 258.1 402.21 266.14 412.22 273.86 422.35 279.84 432.88 284.47 443.8 287.68 454.99 288.79 466.7 289.12 478.76 289.23 491 288.57 503.38 288.75 515.42 290.15 526.93 291.98 537.34 295.45 545.91 300.47 552.78 306.21 556.96 313.31 557.97 321.43 556.81 329.99 552.64 339.2 545.88 348.72 538.5 358.37 530.2 368.09 522.05 377.63 516.15 387.17 512.22 396.06 510.43 404.33 511.46 412.71 513.92 420.72 517.07 428.58 521.32 436.95 524.78 445.68 526.84 455.05 528.23 465.43 527.47 476.84 524.55 489.26 520.46 502.52 514.39 516.27 506.74 529.76 498.31 542.41 488.79 553.14 478.65 560.79 468.21 565.35 457.5 565.65 446.82 561.47 436.11 554.55 425.56 544.7 415.32 533.35 405.09 523.36 395.61 515.34 386.86 510.13 378.01 508.72 369.73 509.96 361.93 512.99 353.82 517.96 345.96 522.65 338.24 526.05 329.99 528.71 321.65 528.85 313.2 526.38 304.17 522.29 295.04 515.83 286.03 507.53 276.86 498.18 268.23 487.72 260.58 476.74 253.65 465.4 248.35 454.01 245.11 442.92 243.3 431.8 243.82 421.13 246.71 411.09 250.71 401.05 256.27 392.08 262.78 384.11 269.08 376.03 275.57 368.77 281.89 362.17 287.16 355.16 292.08 348.43 296.69 341.72 300.27 334.14 303.85 326.12 307.62 317.49 310.86 307.77 314.69 297.39 319.24 286.64 323.67 275.55 329.01 264.96 335.26 255.66 341.54 247.78 348.73 242.46 356.72 240.34 364.73 240.7 373.5 244.3 382.97 250.76" stroke-dasharray="0 2" transform="rotate(52.52, 400, 400)" opacity="0.69"></path><path d="M389.38 261.62C398.26 268.54 407.57 276.17 417.23 283.65 426.98 289.77 437.16 294.84 447.71 298.74 458.39 300.76 469.43 301.98 480.6 302.79 491.72 302.63 502.67 302.91 513.02 303.97 522.67 305.08 531.07 307.45 537.62 311.12 542.66 315.21 545.27 320.57 545.17 327 543.4 333.75 539.16 341.31 532.84 349.43 526.18 357.65 518.78 366.24 511.46 375.01 506.03 383.78 502.14 392.32 499.96 400.64 500.18 409.09 501.62 417.54 503.77 426.15 507.07 435.2 509.95 444.77 511.87 454.97 513.54 465.87 513.56 477.54 511.82 489.78 509.25 502.31 504.93 514.8 499.11 526.51 492.61 537.07 484.96 545.55 476.49 551.08 467.72 553.92 458.44 553.09 448.95 548.54 439.4 541.87 429.76 532.81 420.21 522.48 410.66 513.31 401.61 505.64 393.07 500.21 384.44 497.94 376.18 497.92 368.23 499.57 360.03 503.19 351.94 506.96 343.91 510.05 335.47 512.99 326.96 514.12 318.4 513.21 309.47 511.18 300.58 507.04 291.95 501.12 283.37 494.28 275.44 486.14 268.56 477.19 262.42 467.82 257.85 458.07 255.18 448.28 253.78 438.41 254.48 428.69 257.3 419.31 261.11 409.93 266.36 401.31 272.54 393.4 278.62 385.38 284.98 377.87 291.31 370.73 296.8 363.2 302.05 355.71 307.03 348.07 311.09 339.72 315.09 330.92 319.16 321.65 322.65 311.66 326.54 301.32 330.95 290.96 335.13 280.67 340.05 271.16 345.75 263.12 351.38 256.52 357.86 252.33 365.14 251.03 372.41 251.85 380.49 255.48 389.38 261.62" stroke-dasharray="9 2" transform="rotate(56.56, 400, 400)" opacity="0.10"></path><path d="M397.19 272.49C405.49 278.95 414.25 286.12 423.36 293.3 432.52 299.43 442.07 304.81 451.87 309.25 461.7 312.1 471.7 314.19 481.62 315.8 491.32 316.36 500.63 317.06 509.15 318.21 520.16 320.01 532.24 328.73 531.99 335.85 529.82 341.13 525.67 347.3 519.87 354.2 513.93 361.16 507.39 368.72 500.87 376.79 495.91 384.85 492.12 393.05 489.67 401.34 489.19 409.75 489.74 418.44 490.95 427.46 493.29 436.8 495.45 446.67 497 457.07 498.6 467.83 498.98 479.06 498 490.44 496.51 501.69 493.53 512.49 489.2 522.18 484.36 530.59 478.37 536.94 471.47 540.57 464.3 541.95 456.46 540.26 448.19 535.51 439.85 529.19 431.21 520.93 422.41 511.61 413.61 503.25 405.06 496.01 396.8 490.49 388.47 487.54 380.33 486.44 372.34 486.83 364.17 489.08 356.03 491.74 347.9 494.16 339.5 496.88 331.06 498.39 322.66 498.39 314.08 497.75 305.65 495.38 297.62 491.4 289.78 486.73 282.66 480.72 276.61 473.72 271.3 466.34 267.44 458.31 265.33 449.92 264.31 441.43 265.16 432.78 267.89 424.12 271.49 415.47 276.39 407.21 282.19 399.35 287.99 391.38 294.15 383.63 300.38 376.01 305.98 368.07 311.44 360.01 316.71 351.72 321.2 342.94 325.61 333.79 330.02 324.35 333.86 314.55 337.96 304.68 342.43 295.1 346.59 285.88 351.33 277.63 356.71 270.91 361.97 265.58 367.96 262.45 374.7 261.88 381.4 263.07 388.9 266.7 397.19 272.49" stroke-dasharray="1 10" transform="rotate(60.599999999999994, 400, 400)" opacity="0.27"></path><path d="M405.38 283.36C413.08 289.34 421.16 296.01 429.53 302.81 437.92 308.84 446.58 314.36 455.35 319.19 464.06 322.72 472.76 325.61 481.19 328.01 489.33 329.4 496.91 330.74 503.59 332.28 515.88 337.88 514.16 354.15 506.97 362.63 501.75 368.58 496.03 375.27 490.28 382.67 485.78 390.06 482.15 397.84 479.53 405.92 478.51 414.08 478.3 422.67 478.66 431.64 480.07 440.78 481.45 450.39 482.47 460.32 483.74 470.34 484.16 480.51 483.55 490.5 482.69 500.09 480.64 508.94 477.44 516.53 471.58 525.07 454.73 528.34 444.39 522.42 437.24 516.53 429.61 509.08 421.63 500.74 413.64 493.18 405.68 486.42 397.82 480.95 389.92 477.51 382.04 475.54 374.21 474.82 366.28 475.77 358.3 477.25 350.35 478.78 342.25 480.88 334.15 482.25 326.17 482.6 318.18 482.69 310.43 481.45 303.17 478.88 296.19 475.85 289.97 471.59 284.79 466.28 280.31 460.67 277.16 454.25 275.56 447.23 274.9 440.12 275.86 432.56 278.48 424.68 281.84 416.81 286.38 408.99 291.76 401.28 297.21 393.49 303.07 385.68 309.1 377.81 314.68 369.73 320.22 361.44 325.65 352.94 330.47 344.15 335.21 335.13 339.94 326.02 344.15 316.84 348.52 307.83 353.14 299.34 357.44 291.39 362.17 284.5 367.39 279.11 372.46 274.99 378.13 272.83 384.45 272.88 390.72 274.38 397.69 277.94 405.38 283.36" stroke-dasharray="4 8" transform="rotate(64.64, 400, 400)" opacity="0.08"></path><path d="M412.86 294.23C419.9 299.71 427.22 305.84 434.69 312.18 442.15 317.98 449.74 323.5 457.27 328.55 464.71 332.58 471.97 336.12 478.82 339.22 495.3 345.32 506.75 355.3 504.77 360.43 502.39 364.07 498.78 368.48 494.17 373.68 489.65 378.87 484.71 384.84 479.69 391.59 475.66 398.34 472.24 405.57 469.54 413.19 468.1 420.85 467.28 428.95 466.92 437.38 467.47 445.86 468.08 454.64 468.49 463.54 469.26 472.34 469.46 481.03 468.91 489.28 467.57 500.42 459.93 515.2 453.71 517.26 449.13 516.59 443.79 513.9 437.78 509.28 431.73 503.89 425.1 497.26 417.97 489.87 410.84 483.11 403.57 476.89 396.26 471.58 388.93 467.84 381.51 465.21 374.08 463.57 366.6 463.36 359.06 463.69 351.55 464.23 344.01 465.46 336.52 466.31 329.22 466.53 322.01 466.79 315.12 466.09 308.76 464.35 300.11 460.88 288.26 448.64 285.89 440.31 285.54 434.44 286.59 427.94 289.07 420.89 292.18 413.84 296.33 406.59 301.25 399.22 306.28 391.81 311.77 384.21 317.48 376.46 322.9 368.59 328.39 360.5 333.84 352.27 338.83 343.94 343.79 335.52 348.73 327.18 353.25 318.99 357.87 311.14 362.63 303.96 367.12 297.39 371.91 291.88 377.04 287.79 382.04 284.78 387.49 283.49 393.44 284.06 399.34 285.78 405.81 289.22 412.86 294.23" stroke-dasharray="7 8" transform="rotate(68.68, 400, 400)" opacity="0.58"></path><path d="M418.62 305.1C431.31 315.11 444.43 326.57 456.98 337.32 469.1 345.16 479.67 351.76 487.17 357.67 492.87 361.64 494.3 366.75 490.92 373.79 486.18 380.46 478.35 389.81 469.1 402 462.9 414.19 458.44 428.23 455.74 443.17 456.08 457.98 456.1 472.99 454.57 486.22 453.37 497.3 449.23 504.09 442.09 504.58 434.63 501.21 424.42 492.06 411.92 479 399.42 467.88 386 458.89 372.4 453.11 358.8 451.84 345.04 451.73 332.1 450.95 319.76 451.06 309.17 448.21 301.79 442.03 296.56 435.48 295.62 425.8 299.66 413.41 305.7 401.01 314.89 387.22 325.55 372.76 335.56 358.21 345.97 343.01 356.26 328.42 365.31 314.87 374.83 303.69 385.03 297 394.75 293.87 405.93 296.57 418.62 305.1" stroke-dasharray="6 8" transform="rotate(72.72, 400, 400)" opacity="0.81"></path><path d="M421.91 315.97C433.09 324.88 444.08 335.3 454.07 345.52 463.65 353.76 471.47 361.22 476.47 368.05 480.2 373.24 480.45 379.04 477 386.05 472.85 392.63 466.31 401.23 458.51 412.06 453 422.88 448.48 435.01 445.13 447.51 444.17 459.68 443.04 471.37 440.94 480.94 439.41 488.65 435.75 492.52 429.73 491.34 423.58 487.56 415.03 479.38 404.29 468.13 393.55 458.35 381.8 449.79 369.82 443.41 357.97 440.45 346.1 438.55 335.15 436.53 324.91 435.68 316.38 432.9 310.71 427.63 306.79 422.31 306.46 414.25 310.25 403.57 315.63 392.88 323.77 380.7 333.34 367.89 342.64 355.23 352.56 342.29 362.51 330.34 371.62 319.58 381.1 311.21 390.9 306.81 400.35 305.16 410.72 308.21 421.91 315.97" stroke-dasharray="8 7" transform="rotate(76.76, 400, 400)" opacity="0.84"></path><path d="M422.28 326.84C431.88 334.61 440.78 343.82 448.42 353.19 455.75 361.34 461.3 369.14 464.41 376.46 466.72 382.57 466.31 388.97 463.11 396 459.66 402.64 454.36 410.59 447.92 419.98 443.14 429.37 438.77 439.35 435.08 449.12 432.11 462.76 424.58 479 417.55 477.64 412.3 473.83 405.11 466.74 396.09 457.27 387.06 448.85 377.16 440.97 367.11 434.44 357.24 430.34 347.49 427.01 338.72 423.83 330.61 421.78 324.07 418.59 319.98 413.71 317.21 408.97 317.36 402.11 320.84 393.09 325.53 384.07 332.55 373.84 340.9 363.22 349.22 352.85 358.29 342.56 367.51 333.47 376.25 325.48 385.28 319.7 394.41 317.22 403.31 316.73 412.68 319.94 422.28 326.84" stroke-dasharray="7 2" transform="rotate(80.80000000000001, 400, 400)" opacity="0.97"></path><path d="M419.69 337.71C427.64 344.28 434.61 352.15 440.25 360.39 445.69 367.97 449.49 375.53 451.3 382.8 452.7 389.3 452.03 395.92 449.33 402.75 446.62 409.29 442.48 416.51 437.33 424.39 433.3 432.26 429.29 440.04 425.55 447.16 421.67 456.81 412.9 466.11 406.43 463.57 401.81 460.06 395.78 454.15 388.4 446.4 381.02 439.37 373.04 432.41 365.07 426.15 357.27 421.48 349.72 417.26 343.12 413.24 334.69 408.27 328.09 394.21 331.43 383.83 335.39 376.42 341.25 368.29 348.26 360.1 355.39 352.17 363.29 344.61 371.41 338.28 379.33 332.81 387.49 329.23 395.6 328.26 403.6 328.61 411.74 331.75 419.69 337.71" stroke-dasharray="6 7" transform="rotate(84.84, 400, 400)" opacity="0.73"></path><path d="M414.48 348.58C427.06 359.34 435.26 373.56 437.56 387.15 439.19 399.15 435.19 411.89 426.74 424.49 421.08 437.08 414.48 447.06 407.59 451.16 402.29 453.29 393.89 447.82 382.26 435.53 370.62 425.05 358.17 414.27 348.62 404.97 340.53 398.12 337.44 389.17 342.02 377.43 348.87 365.68 361.02 353.49 374.44 345.08 387.69 338.87 401.91 339.39 414.48 348.58" stroke-dasharray="2 1" transform="rotate(88.88, 400, 400)" opacity="0.35"></path><path d="M407.35 359.44C416.62 367.64 422.24 378.76 423.59 389.76 424.8 400.16 422.15 410.88 416.15 420.27 411.69 429.66 405.83 435.82 399.58 437.38 394.27 438.11 387.12 433.7 378.47 424.66 369.83 416.62 361.39 407.46 355.42 399.02 350.29 391.89 348.81 383.77 352.61 375 357.74 366.23 366.77 358.46 376.89 354 387.12 350.69 398.08 352.17 407.35 359.44" stroke-dasharray="2 10" transform="rotate(92.92, 400, 400)" opacity="0.41"></path><path d="M399.24 370.31C411.37 381.46 413.62 400.09 405.56 412.48 400.17 424.86 389.05 425.7 377.55 413.79 366.04 403.63 358.35 388.71 363.2 376.98 370.45 365.24 387.1 360.8 399.24 370.31" stroke-dasharray="6 6" transform="rotate(96.96, 400, 400)" opacity="0.25"></path></g></svg>