<svg xmlns="http://www.w3.org/2000/svg" version="1.1" xmlns:xlink="http://www.w3.org/1999/xlink" xmlns:svgjs="http://svgjs.dev/svgjs" viewBox="0 0 800 800"><defs><linearGradient x1="50%" y1="0%" x2="50%" y2="100%" id="vvvortex-grad"><stop stop-color="#024CE0" stop-opacity="1" offset="0%"></stop><stop stop-color="#024CE0" stop-opacity="1" offset="100%"></stop></linearGradient></defs><g stroke="url(#vvvortex-grad)" fill="none" stroke-linecap="round"><circle r="367.5" cx="400" cy="400" stroke-width="5" stroke-dasharray="16 53" stroke-dashoffset="25" transform="rotate(354, 400, 400)" opacity="0.46"></circle><circle r="350" cx="400" cy="400" stroke-width="5" stroke-dasharray="22 15" stroke-dashoffset="25" transform="rotate(191, 400, 400)" opacity="0.26"></circle><circle r="332.5" cx="400" cy="400" stroke-width="5" stroke-dasharray="34 24" stroke-dashoffset="25" transform="rotate(104, 400, 400)" opacity="0.84"></circle><circle r="315" cx="400" cy="400" stroke-width="4" stroke-dasharray="31 53" stroke-dashoffset="25" transform="rotate(167, 400, 400)" opacity="0.12"></circle><circle r="297.5" cx="400" cy="400" stroke-width="4" stroke-dasharray="48 53" stroke-dashoffset="25" transform="rotate(230, 400, 400)" opacity="0.31"></circle><circle r="280" cx="400" cy="400" stroke-width="4" stroke-dasharray="54 23" stroke-dashoffset="25" transform="rotate(359, 400, 400)" opacity="0.85"></circle><circle r="262.5" cx="400" cy="400" stroke-width="4" stroke-dasharray="34 46" stroke-dashoffset="25" transform="rotate(268, 400, 400)" opacity="0.72"></circle><circle r="245" cx="400" cy="400" stroke-width="4" stroke-dasharray="30 47" stroke-dashoffset="25" transform="rotate(350, 400, 400)" opacity="0.70"></circle><circle r="227.5" cx="400" cy="400" stroke-width="3" stroke-dasharray="24 49" stroke-dashoffset="25" transform="rotate(262, 400, 400)" opacity="0.12"></circle><circle r="210" cx="400" cy="400" stroke-width="3" stroke-dasharray="28 43" stroke-dashoffset="25" transform="rotate(78, 400, 400)" opacity="0.42"></circle><circle r="192.5" cx="400" cy="400" stroke-width="3" stroke-dasharray="26 25" stroke-dashoffset="25" transform="rotate(20, 400, 400)" opacity="0.34"></circle><circle r="175" cx="400" cy="400" stroke-width="3" stroke-dasharray="32 19" stroke-dashoffset="25" transform="rotate(303, 400, 400)" opacity="0.86"></circle><circle r="157.5" cx="400" cy="400" stroke-width="3" stroke-dasharray="35 17" stroke-dashoffset="25" transform="rotate(131, 400, 400)" opacity="0.29"></circle><circle r="140" cx="400" cy="400" stroke-width="2" stroke-dasharray="16 38" stroke-dashoffset="25" transform="rotate(351, 400, 400)" opacity="0.60"></circle><circle r="122.5" cx="400" cy="400" stroke-width="2" stroke-dasharray="21 18" stroke-dashoffset="25" transform="rotate(129, 400, 400)" opacity="0.43"></circle><circle r="105" cx="400" cy="400" stroke-width="2" stroke-dasharray="41 26" stroke-dashoffset="25" transform="rotate(71, 400, 400)" opacity="0.29"></circle><circle r="87.5" cx="400" cy="400" stroke-width="2" stroke-dasharray="31 46" stroke-dashoffset="25" transform="rotate(112, 400, 400)" opacity="0.57"></circle><circle r="70" cx="400" cy="400" stroke-width="2" stroke-dasharray="30 24" stroke-dashoffset="25" transform="rotate(351, 400, 400)" opacity="0.25"></circle><circle r="52.5" cx="400" cy="400" stroke-width="1" stroke-dasharray="11 39" stroke-dashoffset="25" transform="rotate(213, 400, 400)" opacity="0.45"></circle><circle r="35" cx="400" cy="400" stroke-width="1" stroke-dasharray="24 31" stroke-dashoffset="25" transform="rotate(310, 400, 400)" opacity="0.57"></circle><circle r="17.5" cx="400" cy="400" stroke-width="1" stroke-dasharray="36 33" stroke-dashoffset="25" transform="rotate(36, 400, 400)" opacity="0.60"></circle></g></svg>