<svg xmlns="http://www.w3.org/2000/svg" version="1.1" xmlns:xlink="http://www.w3.org/1999/xlink" xmlns:svgjs="http://svgjs.dev/svgjs" viewBox="0 0 800 800"><defs><linearGradient x1="50%" y1="0%" x2="50%" y2="100%" id="vvvortex-grad"><stop stop-color="#0097DD" stop-opacity="1" offset="0%"></stop><stop stop-color="#024CE0" stop-opacity="1" offset="100%"></stop></linearGradient></defs><g stroke="url(#vvvortex-grad)" fill="none" stroke-linecap="round"><circle r="375" cx="400" cy="400" stroke-width="5" stroke-dasharray="14 48" stroke-dashoffset="25" transform="rotate(67, 400, 400)" opacity="0.77"></circle><circle r="360" cx="400" cy="400" stroke-width="5" stroke-dasharray="49 29" stroke-dashoffset="25" transform="rotate(283, 400, 400)" opacity="0.26"></circle><circle r="345" cx="400" cy="400" stroke-width="5" stroke-dasharray="54 17" stroke-dashoffset="25" transform="rotate(324, 400, 400)" opacity="0.63"></circle><circle r="330" cx="400" cy="400" stroke-width="5" stroke-dasharray="40 51" stroke-dashoffset="25" transform="rotate(289, 400, 400)" opacity="0.80"></circle><circle r="315" cx="400" cy="400" stroke-width="4" stroke-dasharray="50 46" stroke-dashoffset="25" transform="rotate(154, 400, 400)" opacity="0.59"></circle><circle r="300" cx="400" cy="400" stroke-width="4" stroke-dasharray="29 34" stroke-dashoffset="25" transform="rotate(168, 400, 400)" opacity="0.83"></circle><circle r="285" cx="400" cy="400" stroke-width="4" stroke-dasharray="23 37" stroke-dashoffset="25" transform="rotate(158, 400, 400)" opacity="1.00"></circle><circle r="270" cx="400" cy="400" stroke-width="4" stroke-dasharray="31 22" stroke-dashoffset="25" transform="rotate(158, 400, 400)" opacity="0.18"></circle><circle r="255" cx="400" cy="400" stroke-width="4" stroke-dasharray="14 13" stroke-dashoffset="25" transform="rotate(248, 400, 400)" opacity="0.59"></circle><circle r="240" cx="400" cy="400" stroke-width="4" stroke-dasharray="42 10" stroke-dashoffset="25" transform="rotate(131, 400, 400)" opacity="0.29"></circle><circle r="225" cx="400" cy="400" stroke-width="3" stroke-dasharray="20 34" stroke-dashoffset="25" transform="rotate(324, 400, 400)" opacity="0.48"></circle><circle r="210" cx="400" cy="400" stroke-width="3" stroke-dasharray="40 21" stroke-dashoffset="25" transform="rotate(274, 400, 400)" opacity="0.87"></circle><circle r="195" cx="400" cy="400" stroke-width="3" stroke-dasharray="43 22" stroke-dashoffset="25" transform="rotate(204, 400, 400)" opacity="0.89"></circle><circle r="180" cx="400" cy="400" stroke-width="3" stroke-dasharray="15 20" stroke-dashoffset="25" transform="rotate(234, 400, 400)" opacity="1.00"></circle><circle r="165" cx="400" cy="400" stroke-width="3" stroke-dasharray="28 25" stroke-dashoffset="25" transform="rotate(201, 400, 400)" opacity="0.35"></circle><circle r="150" cx="400" cy="400" stroke-width="3" stroke-dasharray="41 50" stroke-dashoffset="25" transform="rotate(124, 400, 400)" opacity="0.09"></circle><circle r="135" cx="400" cy="400" stroke-width="2" stroke-dasharray="29 14" stroke-dashoffset="25" transform="rotate(348, 400, 400)" opacity="0.31"></circle><circle r="120" cx="400" cy="400" stroke-width="2" stroke-dasharray="29 47" stroke-dashoffset="25" transform="rotate(200, 400, 400)" opacity="0.99"></circle><circle r="105" cx="400" cy="400" stroke-width="2" stroke-dasharray="29 12" stroke-dashoffset="25" transform="rotate(31, 400, 400)" opacity="0.52"></circle><circle r="90" cx="400" cy="400" stroke-width="2" stroke-dasharray="49 44" stroke-dashoffset="25" transform="rotate(158, 400, 400)" opacity="0.10"></circle><circle r="75" cx="400" cy="400" stroke-width="2" stroke-dasharray="23 54" stroke-dashoffset="25" transform="rotate(199, 400, 400)" opacity="0.08"></circle><circle r="60" cx="400" cy="400" stroke-width="2" stroke-dasharray="19 50" stroke-dashoffset="25" transform="rotate(226, 400, 400)" opacity="0.73"></circle><circle r="45" cx="400" cy="400" stroke-width="1" stroke-dasharray="13 36" stroke-dashoffset="25" transform="rotate(338, 400, 400)" opacity="0.37"></circle><circle r="30" cx="400" cy="400" stroke-width="1" stroke-dasharray="27 23" stroke-dashoffset="25" transform="rotate(258, 400, 400)" opacity="0.56"></circle><circle r="15" cx="400" cy="400" stroke-width="1" stroke-dasharray="33 32" stroke-dashoffset="25" transform="rotate(320, 400, 400)" opacity="0.20"></circle></g></svg>